<svg width="2950" height="1249" viewBox="0 0 2950 1249" fill="none" xmlns="http://www.w3.org/2000/svg">
<path d="M85.6518 848L219.412 366.465H422.5L554.753 848H417.225L325.289 455.764H316.623L223.179 848H85.6518ZM211.876 743.63V639.636H427.775V743.63H211.876ZM714.635 858.927C677.961 858.927 647.315 850.889 622.698 834.812C598.082 818.485 579.619 794.998 567.311 764.353C555.002 733.708 548.848 696.908 548.848 653.954V579.35C548.848 505.751 568.943 450.112 609.134 412.433C649.325 374.503 707.978 355.538 785.094 355.538C807.701 355.538 828.802 357.045 848.395 360.059C868.239 362.823 886.325 366.59 902.652 371.363C919.231 376.136 933.8 381.536 946.359 387.565L957.663 500.978C938.07 493.191 916.468 486.283 892.856 480.255C869.495 474.226 842.743 471.212 812.6 471.212C769.143 471.212 737.493 480.38 717.649 498.717C697.805 517.054 687.883 546.946 687.883 588.393V655.461C687.883 683.344 694.414 704.946 707.476 720.269C720.789 735.592 741.889 743.253 770.776 743.253C782.833 743.253 793.258 741.746 802.05 738.731C811.093 735.466 818.628 731.196 824.657 725.921C830.937 720.646 836.086 714.868 840.105 708.588V625.695L857.061 663.751L770.776 664.504V560.887H970.097V765.86H837.091C833.323 783.946 827.043 800.022 818.252 814.089C809.711 827.905 797.151 838.831 780.573 846.87C764.245 854.908 742.266 858.927 714.635 858.927ZM841.989 749.282H970.097V848H838.221L841.989 749.282ZM1022.56 848V366.465H1155.57V848H1022.56ZM1062.13 848V734.587H1372.22V848H1062.13ZM1100.94 658.099V549.961H1362.8V658.099H1100.94ZM1062.13 478.748V366.465H1368.83V478.748H1062.13Z" fill="white"/>
<path d="M1789.44 366.088L1899.46 699.169H1904.73L1898.7 497.964V366.088H2027.57V848H1848.97L1733.67 505.123H1728.4L1734.42 709.342V848H1605.19V366.088H1789.44ZM2190.76 848V393.217H2327.54V848H2190.76ZM2061.52 479.878V366.465H2456.4V479.878H2061.52ZM2490.9 848V366.465H2623.91V848H2490.9ZM2530.47 848V734.587H2840.56V848H2530.47ZM2569.27 658.099V549.961H2831.14V658.099H2569.27ZM2530.47 478.748V366.465H2837.17V478.748H2530.47Z" fill="white"/>
<path d="M2808.42 960.738L2845.32 1002.51H2818.52L2791.76 971.926V1002.51H2769.99V892H2791.76V950.32L2818.6 922.077H2845.77L2808.42 960.738Z" fill="white"/>
<path d="M2760.48 892H2738.7V1002.51H2760.48V892Z" fill="white"/>
<path d="M2687.2 920.723C2662.6 920.723 2644.73 938.207 2644.73 962.296C2644.73 986.385 2661.2 1003.87 2683.89 1003.87C2692.83 1003.87 2701.35 1001.15 2707.9 996.381V1002.52H2729.68V962.296C2729.68 938.207 2711.82 920.723 2687.2 920.723ZM2687.36 984.049C2675.35 984.049 2666.96 975.1 2666.96 962.296C2666.96 949.493 2675.54 940.552 2687.36 940.552C2699.18 940.552 2707.9 949.493 2707.9 962.296C2707.9 975.1 2699.45 984.049 2687.36 984.049Z" fill="white"/>
<path d="M2671.51 892V913.03H2639.63V1002.51H2616.79V913.03H2584.91V892H2671.51Z" fill="white"/>
<path d="M2611.32 1002.51H2585.39L2564.56 975.683L2543.88 1002.51H2517.77L2549.49 962.141L2518.25 922.077H2544.16L2564.55 948.194L2584.94 922.077H2611L2579.77 962.141L2611.32 1002.51Z" fill="url(#paint0_linear_2_135)"/>
<path d="M2484.47 920.723C2459.87 920.723 2442 938.207 2442 962.296V1032.6H2463.78V996.552C2470.05 1001.27 2477.97 1003.87 2486.43 1003.87C2509.91 1003.87 2526.95 986.58 2526.95 962.751C2526.95 938.921 2509.08 920.723 2484.47 920.723ZM2484.32 984.049C2472.22 984.049 2463.78 975.1 2463.78 962.296C2463.78 949.493 2472.22 940.552 2484.32 940.552C2496.42 940.552 2504.72 949.493 2504.72 962.296C2504.72 975.1 2496.14 984.049 2484.32 984.049Z" fill="url(#paint1_linear_2_135)"/>
<path d="M247.691 307.451C243.408 307.451 239.631 306.668 236.361 305.102C233.137 303.536 230.535 301.348 228.555 298.539C226.62 295.683 225.423 292.344 224.962 288.521H222.199L224.893 280.715C225.077 285.044 226.091 288.683 227.933 291.63C229.775 294.532 232.216 296.72 235.256 298.193C238.296 299.667 241.681 300.404 245.412 300.404C251.629 300.404 256.396 298.562 259.712 294.877C263.074 291.147 264.755 285.735 264.755 278.642V265.792C264.755 258.746 263.097 253.38 259.781 249.695C256.465 245.965 251.652 244.099 245.342 244.099C241.704 244.099 238.434 244.859 235.532 246.379C232.677 247.853 230.305 249.903 228.416 252.528C226.574 255.107 225.331 258.101 224.686 261.509L222.406 255.36H224.824C225.469 251.998 226.735 248.958 228.624 246.241C230.512 243.524 233.068 241.359 236.292 239.747C239.562 238.089 243.5 237.26 248.106 237.26C256.258 237.26 262.476 239.747 266.759 244.721C271.042 249.695 273.184 256.926 273.184 266.414V278.089C273.184 287.623 271.019 294.9 266.69 299.92C262.36 304.941 256.028 307.451 247.691 307.451ZM216.81 329.765V238.642H225.169L224.755 255.429L224.893 258.193V286.725L224.824 288.66L225.169 307.244V329.765H216.81ZM327.187 306L327.602 289.212L327.256 287.9V266.138V261.647C327.256 255.844 325.782 251.515 322.835 248.659C319.933 245.758 315.35 244.307 309.087 244.307C304.205 244.307 299.76 245.044 295.753 246.517C291.746 247.991 288.223 249.672 285.183 251.561L286.012 244.169C287.67 243.109 289.674 242.05 292.023 240.991C294.371 239.885 297.066 238.987 300.106 238.296C303.191 237.559 306.577 237.191 310.261 237.191C314.775 237.191 318.62 237.744 321.798 238.849C325.022 239.954 327.648 241.566 329.674 243.685C331.701 245.804 333.174 248.36 334.096 251.353C335.063 254.347 335.546 257.709 335.546 261.44V306H327.187ZM303.56 307.451C296.882 307.451 291.746 305.839 288.154 302.615C284.607 299.391 282.834 294.762 282.834 288.729V286.932C282.834 280.991 284.653 276.524 288.292 273.53C291.977 270.49 297.918 268.371 306.116 267.174L328.638 263.858L329.052 270.214L307.152 273.323C301.441 274.152 297.342 275.579 294.855 277.606C292.368 279.586 291.124 282.534 291.124 286.449V287.692C291.124 291.837 292.391 294.992 294.924 297.157C297.457 299.322 301.165 300.404 306.047 300.404C310.238 300.404 313.808 299.644 316.755 298.124C319.749 296.604 322.144 294.578 323.94 292.045C325.782 289.466 327.003 286.587 327.602 283.409L329.26 289.35H327.532C326.98 292.528 325.759 295.499 323.871 298.262C322.029 301.026 319.426 303.26 316.064 304.964C312.748 306.622 308.58 307.451 303.56 307.451ZM351.55 306V238.642H359.979V306H351.55ZM355.765 226.345C353.922 226.345 352.518 225.838 351.55 224.825C350.629 223.811 350.169 222.361 350.169 220.472V219.989C350.169 218.146 350.629 216.719 351.55 215.705C352.518 214.692 353.922 214.185 355.765 214.185C357.653 214.185 359.058 214.692 359.979 215.705C360.9 216.719 361.361 218.146 361.361 219.989V220.472C361.361 222.361 360.9 223.811 359.979 224.825C359.058 225.838 357.653 226.345 355.765 226.345ZM422.509 306V263.72C422.509 259.713 421.956 256.258 420.851 253.357C419.791 250.455 418.018 248.222 415.531 246.656C413.044 245.09 409.705 244.307 405.514 244.307C401.645 244.307 398.283 245.044 395.427 246.517C392.572 247.991 390.269 250.018 388.519 252.597C386.769 255.176 385.571 258.124 384.926 261.44L383.199 255.222H385.064C385.663 251.906 386.907 248.912 388.795 246.241C390.729 243.524 393.309 241.359 396.533 239.747C399.803 238.089 403.764 237.26 408.415 237.26C413.85 237.26 418.202 238.273 421.472 240.3C424.743 242.326 427.114 245.251 428.588 249.074C430.108 252.85 430.868 257.456 430.868 262.891V306H422.509ZM377.051 306V238.642H385.41L384.995 255.291L385.41 255.706V306H377.051ZM473.686 307.451C463.968 307.451 456.599 305.01 451.579 300.128C446.558 295.246 444.048 288.291 444.048 279.264V266.138C444.048 256.742 446.374 249.534 451.026 244.514C455.724 239.494 462.54 236.984 471.475 236.984C477.463 236.984 482.483 238.112 486.536 240.369C490.589 242.626 493.629 245.873 495.655 250.11C497.728 254.347 498.764 259.436 498.764 265.378V267.796C498.764 269.131 498.718 270.467 498.626 271.803C498.534 273.138 498.419 274.474 498.28 275.81H490.543C490.635 273.783 490.681 271.872 490.681 270.076C490.681 268.233 490.681 266.552 490.681 265.032C490.681 260.519 489.944 256.696 488.47 253.564C487.042 250.386 484.901 247.968 482.045 246.31C479.236 244.652 475.712 243.823 471.475 243.823C465.165 243.823 460.399 245.688 457.175 249.419C453.951 253.104 452.339 258.446 452.339 265.447V272.01L452.408 273.115V280.093C452.408 283.179 452.845 285.965 453.72 288.452C454.641 290.939 456.023 293.081 457.865 294.877C459.754 296.627 462.103 297.963 464.912 298.884C467.768 299.805 471.084 300.266 474.86 300.266C479.236 300.266 483.289 299.667 487.019 298.47C490.796 297.226 494.319 295.522 497.59 293.357L496.76 300.888C493.905 302.868 490.52 304.457 486.605 305.655C482.69 306.852 478.384 307.451 473.686 307.451ZM448.401 275.81V269.385H496.415V275.81H448.401ZM512.334 306V214.393H520.693V306H512.334ZM586.863 307.451C578.757 307.451 572.562 304.964 568.279 299.99C563.996 294.969 561.854 287.715 561.854 278.228V266.552C561.854 257.018 563.996 249.764 568.279 244.79C572.608 239.77 578.941 237.26 587.277 237.26C591.561 237.26 595.314 238.043 598.538 239.609C601.808 241.129 604.434 243.316 606.414 246.172C608.395 248.981 609.615 252.298 610.076 256.12H612.839L610.076 263.789C609.891 259.459 608.878 255.844 607.036 252.942C605.194 250.041 602.753 247.853 599.713 246.379C596.719 244.859 593.334 244.099 589.557 244.099C583.34 244.099 578.55 245.942 575.188 249.626C571.871 253.311 570.213 258.723 570.213 265.861V278.711C570.213 285.758 571.871 291.147 575.188 294.877C578.504 298.562 583.317 300.404 589.626 300.404C593.357 300.404 596.65 299.667 599.506 298.193C602.361 296.673 604.71 294.624 606.552 292.045C608.441 289.419 609.707 286.426 610.352 283.064L612.563 289.281H610.145C609.546 292.597 608.279 295.637 606.345 298.401C604.457 301.164 601.901 303.375 598.677 305.033C595.453 306.645 591.515 307.451 586.863 307.451ZM609.799 306L610.283 289.143L610.076 286.38V257.986L610.145 255.982L609.868 236.845V214.393H618.159V306H609.799ZM660.618 307.658C651.315 307.658 644.245 305.102 639.409 299.99C634.573 294.831 632.155 287.416 632.155 277.744V266.759C632.155 257.134 634.573 249.764 639.409 244.652C644.245 239.54 651.315 236.984 660.618 236.984C669.922 236.984 676.991 239.54 681.827 244.652C686.663 249.764 689.081 257.134 689.081 266.759V277.744C689.081 287.416 686.663 294.831 681.827 299.99C676.991 305.102 669.922 307.658 660.618 307.658ZM660.618 300.75C667.158 300.75 672.132 298.815 675.541 294.946C678.995 291.078 680.722 285.505 680.722 278.228V266.276C680.722 259.045 678.995 253.495 675.541 249.626C672.132 245.758 667.158 243.823 660.618 243.823C654.078 243.823 649.104 245.758 645.696 249.626C642.287 253.495 640.583 259.045 640.583 266.276V278.228C640.583 285.505 642.287 291.078 645.696 294.946C649.104 298.815 654.078 300.75 660.618 300.75Z" fill="white"/>
<path d="M1472.97 286C1512.61 286 1550.63 301.748 1578.66 329.78C1606.69 357.813 1622.44 395.833 1622.44 435.477V444.002C1636.3 452.726 1647.64 465.041 1655.21 479.745C1664.84 498.483 1667.75 519.963 1663.44 540.589C1659.14 561.215 1647.87 579.735 1631.54 593.049C1615.21 606.363 1594.8 613.662 1573.73 613.725H1501.74C1492.62 613.725 1483.87 610.102 1477.42 603.653C1471.18 597.406 1467.58 589.003 1467.36 580.192L1467.35 579.339L1467.36 578.484C1467.58 569.674 1471.18 561.271 1477.42 555.024L1478.04 554.428C1484.42 548.353 1492.9 544.952 1501.74 544.952H1524.9V478.635C1524.9 465.7 1530.04 453.294 1539.18 444.147C1543.4 439.927 1548.32 436.563 1553.66 434.16C1553.32 413.232 1544.86 393.235 1530.03 378.41C1514.9 363.275 1494.37 354.772 1472.97 354.772C1451.56 354.772 1431.03 363.275 1415.9 378.41C1401.08 393.235 1392.61 413.232 1392.27 434.16C1397.61 436.563 1402.53 439.927 1406.75 444.147C1415.9 453.294 1421.04 465.7 1421.04 478.635V564.952C1421.04 577.887 1415.9 590.293 1406.75 599.439C1397.6 608.586 1385.2 613.725 1372.26 613.725H1372.2C1351.13 613.662 1330.72 606.363 1314.39 593.049C1298.06 579.735 1286.8 561.215 1282.49 540.589C1278.18 519.963 1281.09 498.483 1290.73 479.745C1298.29 465.041 1309.64 452.726 1323.49 444.002V435.477C1323.49 395.833 1339.24 357.813 1367.27 329.78C1395.3 301.748 1433.32 286 1472.97 286Z" fill="white" stroke="#1E1E1E" stroke-width="40"/>
<path d="M1473.04 631.617C1552.12 631.157 1594.69 588.457 1596.15 507.436C1594.79 429.481 1549.93 384.504 1472.78 384C1394.81 384.482 1349.67 430.466 1349.67 508.203C1349.67 585.939 1394.83 631.157 1473.04 631.617Z" fill="#0096FF"/>
<path d="M1472.86 653C1355.99 653.79 1293.11 720.64 1291 846.369C1290.91 852.596 1293.17 858.614 1297.3 863.052C1301.42 867.491 1307.06 870 1312.94 870H1633.06C1638.94 870 1644.58 867.491 1648.7 863.052C1652.83 858.614 1655.09 852.596 1655 846.369C1652.98 722.452 1588.41 653.79 1472.86 653Z" fill="#0096FF" stroke="#1E1E1E" stroke-width="40"/>
<path d="M1573.76 449.802L1573.5 425.5C1584.73 425.5 1600.97 425.356 1602 425.356C1603.03 425.356 1602.53 455.928 1602.53 455.928C1617.62 462.6 1629.96 474.274 1637.5 488.997C1645.04 503.719 1647.32 520.596 1643.95 536.802C1640.58 553.009 1631.77 567.56 1618.99 578.021C1606.21 588.482 1590.25 594.217 1573.76 594.267H1501.84C1498.03 594.267 1494.37 592.745 1491.67 590.036C1488.98 587.326 1487.46 583.652 1487.46 579.82C1487.46 575.989 1488.98 572.314 1491.67 569.605C1494.37 566.896 1498.03 565.374 1501.84 565.374H1545V478.695C1545 471.032 1548.03 463.683 1553.42 458.265C1558.82 452.846 1566.13 449.802 1573.76 449.802Z" fill="url(#paint2_linear_2_135)"/>
<defs>
<linearGradient id="paint0_linear_2_135" x1="2517.77" y1="962.295" x2="2611.32" y2="962.295" gradientUnits="userSpaceOnUse">
<stop stop-color="#00C8AA"/>
<stop offset="0.0001" stop-color="#00C8AA"/>
<stop offset="1" stop-color="#0096FF"/>
</linearGradient>
<linearGradient id="paint1_linear_2_135" x1="2442" y1="976.657" x2="2526.95" y2="976.657" gradientUnits="userSpaceOnUse">
<stop stop-color="#00C8AA"/>
<stop offset="1" stop-color="#0096FF"/>
</linearGradient>
<linearGradient id="paint2_linear_2_135" x1="1566.46" y1="425.356" x2="1566.46" y2="594.267" gradientUnits="userSpaceOnUse">
<stop stop-color="white"/>
<stop offset="1" stop-color="white"/>
</linearGradient>
</defs>
</svg>
